<mxfile host="app.diagrams.net" modified="2021-10-17T13:53:28.187Z" agent="5.0 (Windows NT 10.0; Win64; x64) AppleWebKit/537.36 (KHTML, like Gecko) Chrome/94.0.4606.71 Safari/537.36" etag="it4YAiD0CeRH8mc5wXfX" version="15.5.4" type="github">
  <diagram name="Page-1" id="9361dd3d-8414-5efd-6122-117bd74ce7a7">
    <mxGraphModel dx="2118" dy="1335" grid="1" gridSize="10" guides="1" tooltips="1" connect="1" arrows="1" fold="1" page="0" pageScale="1.5" pageWidth="826" pageHeight="1169" background="none" math="0" shadow="0">
      <root>
        <mxCell id="0" />
        <mxCell id="1" parent="0" />
        <mxCell id="69" value="" style="fillColor=#DEE8FF;strokeColor=none" parent="1" vertex="1">
          <mxGeometry x="-178.81" y="-220" width="1978.81" height="1180" as="geometry" />
        </mxCell>
        <mxCell id="2" value="" style="fillColor=#CC4125;strokeColor=#660000" parent="1" vertex="1">
          <mxGeometry x="200" y="150" width="10" height="30" as="geometry" />
        </mxCell>
        <mxCell id="3" value="recv()" style="edgeStyle=none;verticalLabelPosition=top;verticalAlign=bottom;labelPosition=left;align=right" parent="1" edge="1">
          <mxGeometry x="110" y="49.5" width="100" height="100" as="geometry">
            <mxPoint x="110" y="149.5" as="sourcePoint" />
            <mxPoint x="200" y="149.5" as="targetPoint" />
          </mxGeometry>
        </mxCell>
        <mxCell id="4" value="Server" style="shadow=1;fillColor=#A2C4C9;strokeColor=none" parent="1" vertex="1">
          <mxGeometry x="152.5" y="60" width="105" height="50" as="geometry" />
        </mxCell>
        <mxCell id="6" value="" style="fillColor=#CC4125;strokeColor=#660000" parent="1" vertex="1">
          <mxGeometry x="342.5" y="180" width="10" height="30" as="geometry" />
        </mxCell>
        <mxCell id="7" value="SessionStage" style="shadow=1;fillColor=#A2C4C9;strokeColor=none" parent="1" vertex="1">
          <mxGeometry x="295" y="60" width="105" height="50" as="geometry" />
        </mxCell>
        <mxCell id="8" value="" style="edgeStyle=none;endArrow=none;dashed=1" parent="1" source="7" target="6" edge="1">
          <mxGeometry x="272.3350694444445" y="165" width="100" height="100" as="geometry">
            <mxPoint x="347.2588734567901" y="110" as="sourcePoint" />
            <mxPoint x="347.5761959876544" y="165" as="targetPoint" />
          </mxGeometry>
        </mxCell>
        <mxCell id="9" value="SessionEvent" style="edgeStyle=none;verticalLabelPosition=top;verticalAlign=bottom" parent="1" edge="1">
          <mxGeometry x="220" y="92" width="100" height="100" as="geometry">
            <mxPoint x="210" y="179.5" as="sourcePoint" />
            <mxPoint x="340" y="179.5" as="targetPoint" />
          </mxGeometry>
        </mxCell>
        <mxCell id="13" value="SQLStageEvent" style="edgeStyle=none;verticalLabelPosition=top;verticalAlign=bottom;entryX=0;entryY=0;entryDx=0;entryDy=0;" parent="1" edge="1" target="17">
          <mxGeometry x="385.45524691358025" y="122.14550925925924" width="100" height="100" as="geometry">
            <mxPoint x="352.5" y="209.43563271604935" as="sourcePoint" />
            <mxPoint x="462.5" y="209.43563271604935" as="targetPoint" />
          </mxGeometry>
        </mxCell>
        <mxCell id="15" value="ResolveStage" style="shadow=1;fillColor=#A2C4C9;strokeColor=none" parent="1" vertex="1">
          <mxGeometry x="462.2839506172839" y="59.99999999999997" width="105" height="50" as="geometry" />
        </mxCell>
        <mxCell id="16" value="" style="edgeStyle=none;endArrow=none" parent="1" source="15" target="17" edge="1">
          <mxGeometry x="437.042824074074" y="270" width="100" height="100" as="geometry">
            <mxPoint x="514.542824074074" y="219.99999999999997" as="sourcePoint" />
            <mxPoint x="514.542824074074" y="239.99999999999997" as="targetPoint" />
          </mxGeometry>
        </mxCell>
        <mxCell id="17" value="" style="fillColor=#CC4125;strokeColor=#660000" parent="1" vertex="1">
          <mxGeometry x="509.78" y="210" width="10" height="30" as="geometry" />
        </mxCell>
        <mxCell id="21" value="" style="fillColor=#CC4125;strokeColor=#660000" parent="1" vertex="1">
          <mxGeometry x="670" y="240" width="10" height="30" as="geometry" />
        </mxCell>
        <mxCell id="22" value="QueryCacheStage&#xa;没有具体逻辑" style="shadow=1;fillColor=#A2C4C9;strokeColor=none" parent="1" vertex="1">
          <mxGeometry x="622.5" y="60" width="105" height="50" as="geometry" />
        </mxCell>
        <mxCell id="23" value="" style="edgeStyle=none;endArrow=none;dashed=1" parent="1" source="22" target="21" edge="1">
          <mxGeometry x="614.4878472222224" y="174.99999999999997" width="100" height="100" as="geometry">
            <mxPoint x="674.6527777777778" y="110" as="sourcePoint" />
            <mxPoint x="674.6527777777778" y="260" as="targetPoint" />
          </mxGeometry>
        </mxCell>
        <mxCell id="24" value="ExecuteStage" style="shadow=1;fillColor=#A2C4C9;strokeColor=none" parent="1" vertex="1">
          <mxGeometry x="1280" y="60" width="105" height="50" as="geometry" />
        </mxCell>
        <mxCell id="25" value="" style="edgeStyle=none;endArrow=none;dashed=1" parent="1" source="24" target="26" edge="1">
          <mxGeometry x="1066.3350694444446" y="165" width="100" height="100" as="geometry">
            <mxPoint x="1141.25887345679" y="110" as="sourcePoint" />
            <mxPoint x="1141.5761959876545" y="165" as="targetPoint" />
          </mxGeometry>
        </mxCell>
        <mxCell id="s2LQRpCYXiTGs1c-41xj-136" value="handle_request&#xa;case SCF_SELECT&#xa;case SCF_INSERT" style="edgeStyle=orthogonalEdgeStyle;rounded=0;orthogonalLoop=1;jettySize=auto;html=0;entryX=1;entryY=0.5;entryDx=0;entryDy=0;labelBackgroundColor=none;labelBorderColor=none;fontSize=9;fontColor=default;exitX=1.018;exitY=0.197;exitDx=0;exitDy=0;exitPerimeter=0;" edge="1" parent="1" source="26" target="26">
          <mxGeometry x="-0.2909" y="32" relative="1" as="geometry">
            <Array as="points">
              <mxPoint x="1358" y="410" />
              <mxPoint x="1358" y="455" />
            </Array>
            <mxPoint as="offset" />
          </mxGeometry>
        </mxCell>
        <mxCell id="26" value="" style="fillColor=#CC4125;strokeColor=#660000" parent="1" vertex="1">
          <mxGeometry x="1327.5" y="380" width="10" height="150" as="geometry" />
        </mxCell>
        <mxCell id="27" value="SQLStageEvent" style="edgeStyle=elbowEdgeStyle;elbow=vertical;verticalLabelPosition=top;verticalAlign=bottom" parent="1" source="17" target="21" edge="1">
          <mxGeometry x="540" y="270" width="100" height="100" as="geometry">
            <mxPoint x="540" y="370" as="sourcePoint" />
            <mxPoint x="640" y="270" as="targetPoint" />
            <Array as="points">
              <mxPoint x="550" y="240" />
            </Array>
          </mxGeometry>
        </mxCell>
        <mxCell id="33" value="" style="edgeStyle=elbowEdgeStyle;elbow=horizontal;endArrow=none;dashed=1" parent="1" source="4" target="2" edge="1">
          <mxGeometry x="230.00000000000003" y="310" width="100" height="100" as="geometry">
            <mxPoint x="230.00000000000003" y="410" as="sourcePoint" />
            <mxPoint x="330" y="310" as="targetPoint" />
          </mxGeometry>
        </mxCell>
        <mxCell id="55" value="yacc_sql.tab.c" style="shadow=1;fillColor=#A2C4C9;strokeColor=none" parent="1" vertex="1">
          <mxGeometry x="1055" y="494.08333333333337" width="105" height="50" as="geometry" />
        </mxCell>
        <mxCell id="56" value="" style="edgeStyle=none;endArrow=none;dashed=1" parent="1" source="55" target="57" edge="1">
          <mxGeometry x="1204.0711805555559" y="380.08680555555554" width="100" height="100" as="geometry">
            <mxPoint x="1279.2361111111113" y="325.08680555555554" as="sourcePoint" />
            <mxPoint x="1350" y="445.08680555555554" as="targetPoint" />
          </mxGeometry>
        </mxCell>
        <mxCell id="57" value="" style="fillColor=#CC4125;strokeColor=#660000" parent="1" vertex="1">
          <mxGeometry x="1102.5" y="580" width="10" height="60" as="geometry" />
        </mxCell>
        <mxCell id="71" value="miniDB Observer收到一条新的命令" style="rounded=1;fontStyle=1;fillColor=#FFD966;strokeColor=none" parent="1" vertex="1">
          <mxGeometry x="50" y="20" width="210" height="30" as="geometry" />
        </mxCell>
        <mxCell id="s2LQRpCYXiTGs1c-41xj-105" value="PlanCacheStage&#xa;没有具体逻辑" style="shadow=1;fillColor=#A2C4C9;strokeColor=none" vertex="1" parent="1">
          <mxGeometry x="780" y="60" width="105" height="50" as="geometry" />
        </mxCell>
        <mxCell id="s2LQRpCYXiTGs1c-41xj-107" value="" style="edgeStyle=none;endArrow=none;dashed=1;startArrow=none;" edge="1" parent="1" source="s2LQRpCYXiTGs1c-41xj-106">
          <mxGeometry x="566.0450694444446" y="165" width="100" height="100" as="geometry">
            <mxPoint x="832.21" y="110" as="sourcePoint" />
            <mxPoint x="832.21" y="289.39" as="targetPoint" />
          </mxGeometry>
        </mxCell>
        <mxCell id="s2LQRpCYXiTGs1c-41xj-114" value="OptimizeStage&#xa;没有具体逻辑" style="shadow=1;fillColor=#A2C4C9;strokeColor=none" vertex="1" parent="1">
          <mxGeometry x="1118.69" y="60.610000000000014" width="105" height="50" as="geometry" />
        </mxCell>
        <mxCell id="s2LQRpCYXiTGs1c-41xj-133" style="edgeStyle=orthogonalEdgeStyle;rounded=0;orthogonalLoop=1;jettySize=auto;html=0;entryX=0;entryY=0;entryDx=0;entryDy=0;labelBackgroundColor=none;labelBorderColor=none;fontSize=7;fontColor=default;exitX=1;exitY=1;exitDx=0;exitDy=0;" edge="1" parent="1" source="s2LQRpCYXiTGs1c-41xj-115" target="26">
          <mxGeometry relative="1" as="geometry">
            <Array as="points">
              <mxPoint x="1328" y="380" />
            </Array>
          </mxGeometry>
        </mxCell>
        <mxCell id="s2LQRpCYXiTGs1c-41xj-135" value="&lt;div style=&quot;color: rgb(212 , 212 , 212) ; background-color: rgb(30 , 30 , 30) ; font-family: &amp;#34;consolas&amp;#34; , &amp;#34;courier new&amp;#34; , monospace ; line-height: 19px&quot;&gt;&lt;span style=&quot;color: rgb(78 , 201 , 176)&quot;&gt;&lt;font style=&quot;font-size: 9px&quot;&gt;ExecutionPlanEvent&lt;/font&gt;&lt;/span&gt;&lt;/div&gt;" style="edgeLabel;html=1;align=center;verticalAlign=middle;resizable=0;points=[];fontSize=7;fontColor=default;" vertex="1" connectable="0" parent="s2LQRpCYXiTGs1c-41xj-133">
          <mxGeometry x="-0.0761" relative="1" as="geometry">
            <mxPoint y="-10" as="offset" />
          </mxGeometry>
        </mxCell>
        <mxCell id="s2LQRpCYXiTGs1c-41xj-115" value="" style="fillColor=#CC4125;strokeColor=#660000" vertex="1" parent="1">
          <mxGeometry x="1166.19" y="340" width="13.81" height="40" as="geometry" />
        </mxCell>
        <mxCell id="s2LQRpCYXiTGs1c-41xj-116" value="" style="edgeStyle=none;endArrow=none;dashed=1" edge="1" parent="1" target="s2LQRpCYXiTGs1c-41xj-115">
          <mxGeometry x="904.7350694444447" y="165.61" width="100" height="100" as="geometry">
            <mxPoint x="1170.9000000000003" y="110.61000000000001" as="sourcePoint" />
            <mxPoint x="1170.9000000000003" y="290" as="targetPoint" />
          </mxGeometry>
        </mxCell>
        <mxCell id="s2LQRpCYXiTGs1c-41xj-129" value="&lt;span style=&quot;color: rgb(220 , 220 , 170) ; background-color: rgb(30 , 30 , 30) ; font-family: &amp;#34;consolas&amp;#34; , &amp;#34;courier new&amp;#34; , monospace ; font-size: 14px&quot;&gt;sql_parse()&lt;br&gt;&lt;/span&gt;" style="edgeStyle=orthogonalEdgeStyle;rounded=0;orthogonalLoop=1;jettySize=auto;html=1;fontColor=#FFFFFF;entryX=0.153;entryY=0.433;entryDx=0;entryDy=0;entryPerimeter=0;exitX=1.225;exitY=0.159;exitDx=0;exitDy=0;exitPerimeter=0;" edge="1" parent="1" source="s2LQRpCYXiTGs1c-41xj-118" target="57">
          <mxGeometry x="-0.0015" y="-53" relative="1" as="geometry">
            <mxPoint x="1100" y="600" as="targetPoint" />
            <Array as="points">
              <mxPoint x="1023" y="306" />
              <mxPoint x="1023" y="607" />
              <mxPoint x="1104" y="607" />
            </Array>
            <mxPoint as="offset" />
          </mxGeometry>
        </mxCell>
        <mxCell id="s2LQRpCYXiTGs1c-41xj-118" value="" style="fillColor=#CC4125;strokeColor=#660000" vertex="1" parent="1">
          <mxGeometry x="997.5" y="300" width="10" height="40" as="geometry" />
        </mxCell>
        <mxCell id="s2LQRpCYXiTGs1c-41xj-119" value="" style="edgeStyle=none;endArrow=none;dashed=1;startArrow=none;" edge="1" parent="1" source="s2LQRpCYXiTGs1c-41xj-117" target="s2LQRpCYXiTGs1c-41xj-118">
          <mxGeometry x="736.0450694444446" y="165" width="100" height="100" as="geometry">
            <mxPoint x="1002.2100000000003" y="110" as="sourcePoint" />
            <mxPoint x="1002.2100000000003" y="289.39" as="targetPoint" />
          </mxGeometry>
        </mxCell>
        <mxCell id="s2LQRpCYXiTGs1c-41xj-117" value="ParseStage" style="shadow=1;fillColor=#A2C4C9;strokeColor=none" vertex="1" parent="1">
          <mxGeometry x="950" y="60" width="105" height="50" as="geometry" />
        </mxCell>
        <mxCell id="s2LQRpCYXiTGs1c-41xj-122" style="edgeStyle=orthogonalEdgeStyle;rounded=0;orthogonalLoop=1;jettySize=auto;html=1;exitX=0.5;exitY=1;exitDx=0;exitDy=0;fontColor=#FFFFFF;" edge="1" parent="1" source="21" target="21">
          <mxGeometry relative="1" as="geometry" />
        </mxCell>
        <mxCell id="s2LQRpCYXiTGs1c-41xj-123" value="SQLStageEvent" style="edgeStyle=elbowEdgeStyle;elbow=vertical;verticalLabelPosition=top;verticalAlign=bottom" edge="1" parent="1">
          <mxGeometry x="700.22" y="300" width="100" height="100" as="geometry">
            <mxPoint x="679.9999999999998" y="270" as="sourcePoint" />
            <mxPoint x="830.22" y="270" as="targetPoint" />
            <Array as="points">
              <mxPoint x="710.22" y="270" />
            </Array>
          </mxGeometry>
        </mxCell>
        <mxCell id="s2LQRpCYXiTGs1c-41xj-106" value="" style="fillColor=#CC4125;strokeColor=#660000" vertex="1" parent="1">
          <mxGeometry x="827.5" y="270" width="10" height="30" as="geometry" />
        </mxCell>
        <mxCell id="s2LQRpCYXiTGs1c-41xj-124" value="" style="edgeStyle=none;endArrow=none;dashed=1" edge="1" parent="1" target="s2LQRpCYXiTGs1c-41xj-106">
          <mxGeometry x="566.0450694444446" y="165" width="100" height="100" as="geometry">
            <mxPoint x="832.21" y="110" as="sourcePoint" />
            <mxPoint x="832.21" y="289.3899999999999" as="targetPoint" />
          </mxGeometry>
        </mxCell>
        <mxCell id="s2LQRpCYXiTGs1c-41xj-125" value="SQLStageEvent" style="edgeStyle=elbowEdgeStyle;elbow=vertical;verticalLabelPosition=top;verticalAlign=bottom;" edge="1" parent="1">
          <mxGeometry x="857.72" y="330" width="100" height="100" as="geometry">
            <mxPoint x="837.5" y="300" as="sourcePoint" />
            <mxPoint x="998" y="300" as="targetPoint" />
            <Array as="points">
              <mxPoint x="867.72" y="300" />
            </Array>
          </mxGeometry>
        </mxCell>
        <mxCell id="s2LQRpCYXiTGs1c-41xj-127" value="ExecutionPlanEvent" style="edgeStyle=elbowEdgeStyle;elbow=vertical;verticalLabelPosition=top;verticalAlign=bottom;" edge="1" parent="1">
          <mxGeometry x="1027.72" y="370" width="100" height="100" as="geometry">
            <mxPoint x="1007.5" y="340" as="sourcePoint" />
            <mxPoint x="1168" y="340" as="targetPoint" />
            <Array as="points">
              <mxPoint x="1037.72" y="340" />
            </Array>
          </mxGeometry>
        </mxCell>
        <mxCell id="s2LQRpCYXiTGs1c-41xj-130" value="yyparse()&#xa;此处解析了SQL，似乎是填充了ParserContext" style="edgeStyle=orthogonalEdgeStyle;rounded=1;orthogonalLoop=1;jettySize=auto;entryX=1;entryY=0.5;entryDx=0;entryDy=0;fontColor=default;exitX=1.169;exitY=0.321;exitDx=0;exitDy=0;exitPerimeter=0;verticalAlign=bottom;labelBorderColor=none;labelBackgroundColor=none;" edge="1" parent="1">
          <mxGeometry x="0.2916" y="-90" relative="1" as="geometry">
            <mxPoint x="1114.1899999999996" y="608.8899999999999" as="sourcePoint" />
            <mxPoint x="1112.5" y="625" as="targetPoint" />
            <Array as="points">
              <mxPoint x="1130" y="609" />
              <mxPoint x="1130" y="625" />
            </Array>
            <mxPoint x="90" y="90" as="offset" />
          </mxGeometry>
        </mxCell>
        <mxCell id="s2LQRpCYXiTGs1c-41xj-138" value="DefaultStorageStage" style="shadow=1;fillColor=#A2C4C9;strokeColor=none" vertex="1" parent="1">
          <mxGeometry x="1460" y="60" width="105" height="50" as="geometry" />
        </mxCell>
        <mxCell id="s2LQRpCYXiTGs1c-41xj-139" value="" style="edgeStyle=none;endArrow=none;dashed=1" edge="1" parent="1" source="s2LQRpCYXiTGs1c-41xj-138" target="s2LQRpCYXiTGs1c-41xj-141">
          <mxGeometry x="1246.3350694444446" y="165" width="100" height="100" as="geometry">
            <mxPoint x="1321.25887345679" y="110" as="sourcePoint" />
            <mxPoint x="1321.5761959876545" y="165" as="targetPoint" />
          </mxGeometry>
        </mxCell>
        <mxCell id="s2LQRpCYXiTGs1c-41xj-141" value="" style="fillColor=#CC4125;strokeColor=#660000" vertex="1" parent="1">
          <mxGeometry x="1507.5" y="450" width="10" height="80" as="geometry" />
        </mxCell>
        <mxCell id="s2LQRpCYXiTGs1c-41xj-142" value="" style="endArrow=classic;html=1;rounded=0;labelBackgroundColor=none;labelBorderColor=none;fontSize=9;fontColor=default;entryX=0;entryY=0;entryDx=0;entryDy=0;" edge="1" parent="1" target="s2LQRpCYXiTGs1c-41xj-141">
          <mxGeometry width="50" height="50" relative="1" as="geometry">
            <mxPoint x="1360" y="450" as="sourcePoint" />
            <mxPoint x="1430" y="400" as="targetPoint" />
            <Array as="points">
              <mxPoint x="1500" y="450" />
            </Array>
          </mxGeometry>
        </mxCell>
        <mxCell id="s2LQRpCYXiTGs1c-41xj-143" value="部分场景下" style="edgeLabel;html=1;align=center;verticalAlign=middle;resizable=0;points=[];fontSize=9;fontColor=default;" vertex="1" connectable="0" parent="s2LQRpCYXiTGs1c-41xj-142">
          <mxGeometry x="0.3967" y="-1" relative="1" as="geometry">
            <mxPoint as="offset" />
          </mxGeometry>
        </mxCell>
      </root>
    </mxGraphModel>
  </diagram>
</mxfile>
